Coordinates
version=1
nRows=13
nColumns=38
inDegrees=yes

Units are S.I. units (second, meters, Newtons, ...)
Angles are in degrees.

endheader
time	pelvis_tilt	pelvis_list	pelvis_rotation	pelvis_tx	pelvis_ty	pelvis_tz	hip_flexion_r	hip_adduction_r	hip_rotation_r	knee_angle_r	ankle_angle_r	subtalar_angle_r	mtp_angle_r	hip_flexion_l	hip_adduction_l	hip_rotation_l	knee_angle_l	ankle_angle_l	subtalar_angle_l	mtp_angle_l	lumbar_extension	lumbar_bending	lumbar_rotation	arm_flex_r	arm_add_r	arm_rot_r	elbow_flex_r	pro_sup_r	wrist_flex_r	wrist_dev_r	arm_flex_l	arm_add_l	arm_rot_l	elbow_flex_l	pro_sup_l	wrist_flex_l	wrist_dev_l
      3.41000000	     -2.16252725	      5.29757402	      5.19458489	     -0.53598161	      0.91266733	     -0.23216669	      6.24567247	     -3.35500698	     -2.68054526	    -60.24150424	    -15.75159619	    -15.99547771	     30.57891486	     20.03232463	     10.26035824	      3.48151605	    -25.53812907	      2.68592558	      2.50561271	      7.32602121	     -4.32512511	     -5.06212862	     -2.45845990	     -4.90423322	    -17.21817896	     10.12528396	     26.22942413	     86.51662706	      0.00000000	      0.00000000	     -2.29562858	    -15.18344034	     19.78988932	     18.05685223	     85.94366927	      0.00000000	      0.00000000
      3.42000000	     -2.19569208	      5.25025719	      4.95382931	     -0.52491923	      0.91406262	     -0.23203657	      8.26824012	     -3.24284329	     -2.28611666	    -62.14641063	    -14.92340182	    -16.69037930	     29.34923093	     19.11536356	      9.96923192	      2.85175381	    -25.20493195	      3.43917447	      3.48149734	      7.10329084	     -4.41461141	     -5.07000718	     -2.61253957	     -4.72265216	    -17.10013506	     10.87107191	     25.37207312	     86.51662706	      0.00000000	      0.00000000	     -2.19433239	    -15.34458429	     19.21901309	     18.87809900	     85.94366927	      0.00000000	      0.00000000
      3.43000000	     -2.22027545	      5.15940342	      4.75420746	     -0.51385766	      0.91548618	     -0.23197516	     10.24646551	     -3.09494613	     -1.99948679	    -63.71636429	    -13.97350590	    -16.96344933	     28.24373366	     18.14880985	      9.69707609	      2.48128947	    -24.81135366	      4.12637261	      4.22979898	      6.84799825	     -4.50922533	     -5.01125876	     -2.81294465	     -4.59623340	    -16.99928898	     11.52952645	     24.62468231	     86.51662706	      0.00000000	      0.00000000	     -2.08936296	    -15.49559575	     18.69698213	     19.68932730	     85.94366927	      0.00000000	      0.00000000
      3.44000000	     -2.23661864	      5.03047006	      4.60485760	     -0.50277702	      0.91691217	     -0.23202256	     12.16147338	     -2.92264198	     -1.80470107	    -64.94453969	    -12.95775706	    -16.82388470	     27.28686451	     17.13828637	      9.44995282	      2.37802181	    -24.37180066	      4.76194375	      4.73153277	      6.56278939	     -4.60408633	     -4.89017350	     -3.05203766	     -4.54422501	    -16.91637710	     12.06822495	     23.99732864	     86.51662706	      0.00000000	      0.00000000	     -1.97931238	    -15.63346358	     18.22616796	     20.49187917	     85.94366927	      0.00000000	      0.00000000
      3.45000000	     -2.24417589	      4.86779056	      4.50898398	     -0.49168172	      0.91831195	     -0.23219798	     13.99805774	     -2.73784745	     -1.68787475	    -65.83158186	    -11.90629089	    -16.32405414	     26.48365426	     16.09261139	      9.22490550	      2.51781475	    -23.90046380	      5.35714020	      4.99452000	      6.25560673	     -4.69626761	     -4.71238800	     -3.32193431	     -4.57467017	    -16.85191068	     12.46474840	     23.49199491	     86.51662706	      0.00000000	      0.00000000	     -1.86263085	    -15.75640544	     17.80609413	     21.28780390	     85.94366927	      0.00000000	      0.00000000
      3.46000000	     -2.24186664	      4.67497177	      4.46360101	     -0.48057144	      0.91965538	     -0.23248337	     15.74515236	     -2.55150883	     -1.63969578	    -66.38307070	    -10.83439182	    -15.55037345	     25.82180034	     15.02176406	      9.01286985	      2.85139742	    -23.40961310	      5.91927380	      5.05059231	      5.93848541	     -4.78462775	     -4.48448881	     -3.61493043	     -4.68511080	    -16.80564371	     12.70773057	     23.10253781	     86.51662706	      0.00000000	      0.00000000	     -1.73818545	    -15.86458869	     17.43435558	     22.07886321	     85.94366927	      0.00000000	      0.00000000
      3.47000000	     -2.22873082	      4.45587531	      4.46040898	     -0.46943365	      0.92092269	     -0.23284082	     17.39571570	     -2.37150498	     -1.65503676	    -66.60752693	     -9.75352623	    -14.61007753	     25.27532424	     13.93471482	      8.80219214	      3.31407326	    -22.90823908	      6.45260274	      4.94983353	      5.62605378	     -4.86930525	     -4.21380854	     -3.92382967	     -4.86499187	    -16.77621116	     12.79672908	     22.81563311	     86.51662706	      0.00000000	      0.00000000	     -1.60574549	    -15.96041216	     17.10754351	     22.86596329	     85.94366927	      0.00000000	      0.00000000
      3.48000000	     -2.20449652	      4.21501823	      4.48781130	     -0.45825879	      0.92210678	     -0.23323758	     18.94598402	     -2.20181475	     -1.73048332	    -66.51480340	     -8.67885791	    -13.61683489	     24.80927030	     12.83793625	      8.58166862	      3.83649581	    -22.40118360	      6.96010182	      4.75283832	      5.33391758	     -4.95111748	     -3.90841562	     -4.24220157	     -5.09898688	    -16.76094261	     12.74105981	     22.61251170	     86.51662706	      0.00000000	      0.00000000	     -1.46626026	    -16.04818769	     16.82200075	     23.64900265	     85.94366927	      0.00000000	      0.00000000
      3.49000000	     -2.16985350	      3.95731638	      4.53368329	     -0.44705341	      0.92319540	     -0.23364861	     20.39434160	     -2.04325688	     -1.86141039	    -66.11489041	     -7.63193993	    -12.67747218	     24.38481143	     11.73477879	      8.34250464	      4.35480961	    -21.88909629	      7.44522303	      4.52219005	      5.07708932	     -5.03106797	     -3.57715941	     -4.56454517	     -5.37031660	    -16.75590646	     12.55783238	     22.47119506	     86.51662706	      0.00000000	      0.00000000	     -1.32180951	    -16.13334513	     16.57426737	     24.42700673	     85.94366927	      0.00000000	      0.00000000
      3.50000000	     -2.12643365	      3.68813982	      4.58807136	     -0.43583382	      0.92415942	     -0.23404988	     21.74021307	     -1.89479679	     -2.04016433	    -65.41721889	     -6.63923564	    -11.88122180	     23.96414648	     10.62555749	      8.07919325	      4.81873878	    -21.36949198	      7.91292053	      4.31438986	      4.86859498	     -5.11006560	     -3.22963843	     -4.88637703	     -5.66334281	    -16.75623656	     12.26949950	     22.36888633	     86.51662706	      0.00000000	      0.00000000	     -1.17518032	    -16.22150757	     16.36118025	     25.19838402	     85.94366927	      0.00000000	      0.00000000
      3.51000000	     -2.07631234	      3.41379583	      4.64491679	     -0.42460558	      0.92495726	     -0.23442050	     22.98334247	     -1.75493908	     -2.25598775	    -64.43043260	     -5.72799646	    -11.29230012	     23.51466785	      9.50826062	      7.78987490	      5.19658728	    -20.83870961	      8.36961472	      4.17331099	      4.71835655	     -5.18891255	     -2.87602325	     -5.20430895	     -5.96511161	    -16.75668034	     11.90127139	     22.28417177	     86.51662706	      0.00000000	      0.00000000	     -1.02917428	    -16.31765721	     16.17970337	     25.96115301	     85.94366927	      0.00000000	      0.00000000
      3.52000000	     -2.02123554	      3.14169004	      4.70221139	     -0.41335404	      0.92554923	     -0.23474499	     24.12319920	     -1.62339000	     -2.49641370	    -63.16270996	     -4.92122087	    -10.94604010	     23.01204641	      8.37995631	      7.47672627	      5.47666185	    -20.29410349	      8.82224856	      4.12594847	      4.63241518	     -5.26857444	     -2.52673733	     -5.51615688	     -6.26586429	    -16.75219500	     11.47872017	     22.19875171	     86.51662706	      0.00000000	      0.00000000	     -0.88590090	    -16.42540697	     16.02665081	     26.71302609	     85.94366927	      0.00000000	      0.00000000
      3.53000000	     -1.96202160	      2.87997847	      4.76077159	     -0.40206111	      0.92591351	     -0.23501179	     25.15833035	     -1.50256767	     -2.74934546	    -61.62257678	     -4.23331119	    -10.84817815	     22.44208321	      7.23852895	      7.14627426	      5.66535095	    -19.73573760	      9.27689782	      4.18086228	      4.61252352	     -5.35058065	     -2.19205290	     -5.82103643	     -6.55875289	    -16.73843690	     11.02582417	     22.09852972	     86.51662706	      0.00000000	      0.00000000	     -0.74632933	    -16.54642414	     15.89849081	     27.45130055	     85.94366927	      0.00000000	      0.00000000
